HIERARCHY
ROOT hip
{
	OFFSET 0.000000 0.000000 0.000000 
	CHANNELS 6 Xposition Yposition Zposition Xrotation Zrotation Yrotation
	JOINT abdomen
	{
		OFFSET 0.000000 3.402643 0.000000 
		CHANNELS 3 Xrotation Zrotation Yrotation
		JOINT chest
		{
			OFFSET 0.000000 8.438565 -0.680529 
			CHANNELS 3 Xrotation Zrotation Yrotation
			JOINT neck
			{
				OFFSET 0.000000 10.207942 -0.272212 
				CHANNELS 3 Xrotation Zrotation Yrotation
				JOINT head
				{
					OFFSET 0.000000 3.130431 0.000000 
					CHANNELS 3 Xrotation Zrotation Yrotation
					End Site
					{
						OFFSET 0.000000 3.130435 0.000000 
					}
				}
			}
			JOINT lCollar
			{
				OFFSET 3.470700 6.669187 -0.816635 
				CHANNELS 3 Yrotation Zrotation Xrotation
				JOINT lShldr
				{
					OFFSET 3.198488 0.000000 0.000000 
					CHANNELS 3 Zrotation Yrotation Xrotation
					JOINT lForeArm
					{
						OFFSET 10.139888 0.000000 0.000000 
						CHANNELS 3 Yrotation Zrotation Xrotation
						JOINT lHand
						{
							OFFSET 8.370511 0.000000 0.000000 
							CHANNELS 3 Zrotation Yrotation Xrotation
							End Site
							{
								OFFSET 4.083176 0.000000 0.000000 
							}
						}
					}
				}
			}
			JOINT rCollar
			{
				OFFSET -3.470700 6.669187 -0.816635 
				CHANNELS 3 Yrotation Zrotation Xrotation
				JOINT rShldr
				{
					OFFSET -3.198488 0.000000 0.000000 
					CHANNELS 3 Zrotation Yrotation Xrotation
					JOINT rForeArm
					{
						OFFSET -10.139888 0.000000 0.000000 
						CHANNELS 3 Yrotation Zrotation Xrotation
						JOINT rHand
						{
							OFFSET -8.370511 0.000000 0.000000 
							CHANNELS 3 Zrotation Yrotation Xrotation
							End Site
							{
								OFFSET -4.083176 0.000000 0.000000 
							}
						}
					}
				}
			}
		}
	}
	JOINT lThigh
	{
		OFFSET 5.308129 -1.633274 1.361059 
		CHANNELS 3 Xrotation Zrotation Yrotation
		JOINT lShin
		{
			OFFSET -2.041588 -20.007561 0.000000 
			CHANNELS 3 Xrotation Zrotation Yrotation
			JOINT lFoot
			{
				OFFSET 0.000000 -19.190928 -1.224953 
				CHANNELS 3 Xrotation Yrotation Zrotation
				End Site
				{
					OFFSET 0.000000 -2.449906 4.627600 
				}
			}
		}
	}
	JOINT rThigh
	{
		OFFSET -5.308129 -1.633274 1.361059 
		CHANNELS 3 Xrotation Zrotation Yrotation
		JOINT rShin
		{
			OFFSET 2.041588 -20.007561 0.000000 
			CHANNELS 3 Xrotation Zrotation Yrotation
			JOINT rFoot
			{
				OFFSET 0.000000 -19.190928 -1.224953 
				CHANNELS 3 Xrotation Yrotation Zrotation
				End Site
				{
					OFFSET 0.000000 -2.449906 4.627600 
				}
			}
		}
	}
}
MOTION
Frames: 12
Frame Time: 0.033333
1.149826 50.099567 0.060425 2.131384 0.283109 -1.474591 0.000000 0.000000 0.000000 -3.213601 0.830029 0.625076 6.571487 -0.087887 0.507812 7.477772 0.292956 -0.527337 -0.065690 9.688288 -2.339170 -12.446471 -12.943582 -18.973167 -2.457829 -6.898417 16.158916 5.742406 -4.576099 -3.775311 0.505133 -9.882989 -2.408044 10.485639 0.476412 -13.136975 0.245944 10.100428 8.328084 -13.360606 5.507533 -4.417291 0.409600 4.442920 1.858442 0.517171 -1.737572 20.037336 -1.469236 0.048676 -3.255343 0.291742 -11.155202 -7.239149 -1.152331 3.611723 -0.027680 4.521626 0.292691 7.443824 
1.445592 50.158031 -0.261831 2.618544 -0.048809 -1.591805 0.000000 0.000000 0.000000 -3.025259 1.103452 0.615496 6.263361 0.292947 0.703166 9.224653 0.566393 -0.390606 -0.133400 8.956500 -2.156129 -15.945490 -9.646563 -17.508701 -13.406581 -6.459429 14.932055 7.173158 -3.285764 -3.821653 0.774655 -8.493209 -2.230128 12.138903 0.837849 -14.040472 0.241575 9.377042 7.480525 -15.353833 6.810282 -4.722672 -0.672810 4.258852 1.391548 0.809935 -1.493633 20.518391 -0.829250 0.023620 -2.755730 -2.616914 -11.264922 -6.546854 2.509278 3.358784 -0.184574 4.829684 0.318626 7.896283 
1.795714 50.164284 -0.576290 2.645293 -0.312382 -1.572296 0.000000 0.000000 0.000000 -2.516012 1.298760 0.586230 6.542431 0.615165 0.859430 10.243628 0.273437 -0.107421 -0.020632 8.187787 -1.706996 -19.205006 -8.545498 -16.070084 -20.082027 -6.272995 15.520978 6.660429 -2.917805 -3.776394 1.047862 -7.007465 -1.740275 13.586095 0.958851 -13.247885 0.856001 9.338795 7.487020 -15.944479 7.453715 -4.862127 -1.297373 3.950143 0.993718 1.075527 -1.329890 20.962969 -0.454775 0.004499 -2.173980 -4.149567 -11.432024 -6.229048 4.488257 3.210242 -0.229806 5.273939 0.378717 8.323790 
2.181861 50.103855 -0.909625 2.396733 -0.497852 -1.601672 0.000000 0.000000 0.000000 -1.825370 1.347615 0.449554 6.958694 0.810402 1.084152 11.532344 -0.117184 0.419921 -0.394991 7.156927 -1.063469 -22.326668 -7.927994 -15.469304 -24.220491 -5.991108 17.844955 3.740955 -3.254040 -3.612567 1.347867 -5.564100 -1.107456 15.642093 -0.443143 -12.264371 5.424122 9.315608 8.843649 -15.160083 6.066817 -4.620949 -1.549731 3.645179 0.742170 1.210980 -1.286447 21.376032 -0.486943 0.008799 -1.691353 -4.451468 -11.614081 -6.037113 4.674616 3.015656 -0.017066 5.775192 0.420571 8.823853 
2.650436 50.008720 -1.315130 2.540363 -0.820048 -1.455348 0.000000 0.000000 0.000000 -1.350056 1.542951 0.273601 6.935634 0.878641 1.406534 13.619866 -0.205053 0.888666 -0.711391 6.482623 -0.620069 -26.060621 -8.216335 -14.455400 -27.263800 -6.107700 17.624947 1.696685 -2.812730 -3.508216 1.254885 -4.565854 -0.675409 18.921036 -3.022993 -11.419851 13.409803 9.390957 10.775108 -14.181664 3.474128 -4.261333 -2.294101 3.397079 0.368428 1.366817 -1.216450 21.798176 -0.303821 0.030661 -1.546070 -5.390141 -11.843481 -5.902095 5.184558 2.919495 -0.230866 6.312621 0.506597 9.365237 
3.201422 49.910446 -1.793052 2.802680 -1.191047 -1.406555 0.000000 0.000000 0.000000 -0.925112 1.708982 0.088143 6.734440 1.454652 1.387263 16.248196 -1.630347 1.436077 -1.013326 5.804622 -0.216671 -30.209219 -8.652225 -13.698609 -30.002026 -6.231416 16.763897 0.834196 -1.338864 -3.466245 1.156789 -3.052630 -0.283263 21.585405 -3.977920 -10.786692 17.921251 9.561348 11.995038 -13.352291 1.856177 -4.039571 -3.449170 3.030250 0.022016 1.834552 -1.154102 22.575855 -0.242989 0.013779 -1.029580 -6.170221 -12.075728 -5.788444 4.958715 2.870083 -0.422053 7.353535 0.619687 9.944404 
3.815075 49.834187 -2.364056 3.224228 -1.708241 -1.690449 0.000000 0.000000 0.000000 -0.566406 2.031250 0.000346 6.576594 1.707826 2.110475 19.386503 -2.254215 2.188879 -1.161506 4.470290 0.116807 -33.985165 -9.194889 -12.383144 -32.124668 -6.652228 14.821486 1.670797 0.356619 -3.496860 1.475283 -1.317605 0.029504 23.975428 -5.191790 -9.845964 22.430458 9.773791 12.012313 -12.459118 0.308974 -3.858043 -5.656978 2.828276 -0.213456 4.060564 -1.247359 22.920948 -1.120525 0.022996 -0.263591 -7.567927 -12.078650 -5.333166 5.006740 2.703624 -0.784313 8.980602 0.837825 10.575121 
4.481678 49.751560 -3.008825 3.560623 -2.487655 -2.610050 0.000000 0.000000 0.000000 -0.084012 2.499963 0.313055 6.937944 2.154207 3.489000 21.653252 -2.662147 3.088954 -0.895794 3.947001 0.528048 -39.102375 -9.801924 -10.966758 -34.012836 -6.927788 14.527184 2.687789 1.781323 -3.512439 2.485469 0.691208 0.399984 26.206165 -6.787785 -8.587998 26.671215 9.919351 12.181931 -11.163234 -0.500401 -3.743561 -8.233927 2.897396 -0.209649 6.979952 -1.297090 24.127123 -1.796869 0.018517 -0.045181 -9.059845 -11.890254 -4.808080 4.742048 2.692906 -0.732569 11.493484 1.120476 11.079947 
5.150162 49.754082 -3.746509 4.414188 -3.262362 -4.284849 0.000000 0.000000 0.000000 0.180478 2.987802 1.027051 7.240679 2.469886 5.298139 23.697229 -3.497082 4.060067 -0.124493 3.621752 0.733425 -44.310673 -9.953243 -7.838313 -36.150646 -7.542192 14.197396 3.826979 3.088783 -3.508060 3.449767 2.777766 0.555918 28.311769 -7.709239 -6.597841 30.601282 10.243795 12.667406 -11.716214 -1.324964 -3.684766 -10.715691 3.278666 0.187801 8.511580 -1.616459 25.736576 -1.485560 -0.013062 0.824046 -10.689326 -11.401342 -4.077244 3.023875 2.760485 -0.613510 15.459172 1.565761 11.619688 
5.823510 49.757374 -4.465653 5.050680 -3.836424 -5.990563 0.000000 0.000000 0.000000 0.604608 3.289866 1.516220 7.570727 2.626512 7.048797 26.226654 -4.872506 5.204082 0.350181 3.718157 1.076366 -49.148575 -8.625355 -3.420182 -38.693966 -8.384615 14.671094 3.623487 3.682208 -3.487761 4.029575 4.181950 0.859208 30.827936 -7.847450 -4.087348 34.630257 10.598561 13.352742 -11.612183 -2.309856 -3.601653 -12.359920 3.602125 0.449664 9.022616 -2.019268 27.165358 -0.948382 -0.017281 1.753473 -10.843854 -10.989491 -3.908043 -0.808228 3.048133 -1.542510 18.957851 2.091429 12.754478 
6.438422 49.787472 -5.110088 5.338844 -3.783572 -7.751567 0.000000 0.000000 0.000000 1.050157 2.898567 2.034082 8.408981 2.394668 8.601694 27.938726 -6.164517 6.256948 0.832945 3.713913 1.467288 -53.799335 -6.958664 0.794641 -40.613712 -8.966284 18.962990 2.065507 3.445313 -3.494868 4.641815 4.389299 1.248889 34.476448 -8.037926 -1.756105 37.940552 10.773583 14.594668 -11.155822 -2.847181 -3.556943 -12.404964 3.454657 0.536120 7.213191 -2.427619 29.025009 0.171463 -0.012812 2.333375 -11.967820 -10.991063 -4.123128 -0.798664 3.439641 -3.260138 18.932150 2.088181 12.667113 
6.929284 49.838799 -5.742719 5.555517 -4.115398 -9.291828 0.000000 0.000000 0.000000 1.413023 2.634246 2.483232 9.474031 1.988693 10.338618 28.242422 -6.701976 7.403280 1.323809 3.323662 1.769759 -57.266144 -5.011003 3.873625 -42.406342 -9.406113 21.607832 -0.679244 2.649303 -3.484619 5.240557 4.537992 1.550519 38.191410 -8.341708 0.539850 40.905964 10.855783 16.514076 -9.853992 -3.451405 -3.509305 -11.882750 3.964331 0.943121 4.646351 -2.897228 30.094677 1.168225 0.019975 2.056962 -13.548754 -10.317112 -4.469250 3.022709 3.918137 -5.374826 15.228435 1.309406 9.804897 
